<?xml version="1.0" encoding="utf-8"?>
<!DOCTYPE svg PUBLIC "-//W3C//DTD SVG 1.0//EN" "http://www.w3.org/TR/2001/REC-SVG-20010904/DTD/svg10.dtd">
<svg version="1.0" xmlns="http://www.w3.org/2000/svg" width="1024px" height="1536px" viewBox="0 0 1024 1536" preserveAspectRatio="xMidYMid meet">
 <g fill="#1a3f59">
  <path d="M574.4 1349.3 c-1.1 -4.3 1.3 -26.3 4.7 -42.8 3.6 -17.6 10.2 -41.2 15.3 -54.5 2 -5.2 4.6 -12 5.7 -15 1.2 -3 6.8 -15.1 12.6 -26.8 18 -36.6 39.3 -66.3 68.2 -95.2 24.2 -24.2 43.8 -38.3 72.3 -52 20.7 -9.9 47.3 -18.1 68.8 -21.1 12.7 -1.8 45.7 -1.9 48.8 -0.1 3 1.7 2.9 7.2 -0.3 21 -16.4 71.4 -8.4 139.3 24.2 204.7 13.3 26.7 25.2 43.6 43.5 61.7 10 9.8 11.8 12.1 11.8 14.7 l0 3.1 -11.3 0 c-15 0 -19 -1.3 -30.7 -10.1 -11.4 -8.5 -15 -10.5 -22.9 -12.3 -10.4 -2.4 -21.1 1.2 -34.3 11.8 -13.9 11.1 -29.7 14.3 -42.4 8.6 -2.3 -1 -9 -5.2 -14.8 -9.3 -15.7 -11.2 -26.2 -14 -38.4 -10.4 -7.1 2.2 -11.6 4.7 -22.1 12.5 -10.8 8 -13.9 9.2 -24.7 9.2 -10.5 0 -15.2 -1.8 -27.1 -10.7 -17.2 -12.8 -28 -15.4 -41.3 -9.9 -3.6 1.5 -9 4.5 -12 6.7 -17.3 12.5 -23.5 15.2 -37.2 16.4 -4.3 0.4 -8 1.1 -8.4 1.6 -0.3 0.5 -2.1 0.9 -3.9 0.9 -2.9 0 -3.6 -0.4 -4.1 -2.7z"/>
  <path d="M744.5 594.3 c-37.2 -3.2 -70.9 -15.8 -89.9 -33.4 -8.6 -8 -13.6 -15.1 -17.3 -24.4 -2.5 -6.5 -2.7 -8.1 -2.8 -21 0 -12 0.3 -15 2.3 -21 10.5 -31.5 48 -63.8 90.5 -77.9 18.9 -6.3 28.6 -7.8 52.9 -8.3 11.9 -0.3 23.8 -0.2 26.3 0.1 l4.5 0.7 0 5.3 c0 3.1 -1.3 9.5 -3 15.2 -12 39 -12.9 63.8 -3.3 92.9 6.1 18.5 16.5 36.5 29.7 51.4 5.3 5.9 6.6 8.1 6.6 10.7 0 2.2 -0.5 3.4 -1.7 3.8 -3.6 1.1 -27.2 4.6 -37.8 5.6 -10.1 0.9 -47.5 1.1 -57 0.3z"/>
  <path d="M103.4 371.7 c-7.8 -1.4 -11.8 -3.6 -19.7 -10.9 -6.4 -6 -6.5 -10 -0.6 -18.4 24.3 -35 37.7 -59.6 45.8 -84.9 16.3 -50.2 17.4 -99.5 3.5 -150.3 -4.7 -17 -4.7 -16.8 2.1 -17.5 3.1 -0.3 12.5 -0.1 20.9 0.4 77.5 4.6 151 46.1 200.3 112.9 24.9 33.8 44.9 74.2 54.8 110.8 4.9 18.1 7.7 34.3 7.9 44.7 l0.1 9 -2.9 0.3 c-4.4 0.5 -6.6 -0.4 -14.1 -5.9 -11.9 -8.7 -17.9 -11.3 -26 -11.4 -8.5 0 -15.9 3.2 -27.5 11.9 -10.7 8 -16.3 9.9 -27.5 9.4 -10.5 -0.5 -13.1 -1.6 -24.8 -10.7 -19.6 -15.1 -35.4 -14.4 -55.2 2.5 -7.8 6.6 -13 8.4 -23.8 8.4 -11 0 -15.2 -1.7 -26.6 -10.5 -8.9 -6.8 -13.2 -9 -20.8 -11 -5.9 -1.5 -9.1 -1.3 -17.5 1 -6.7 1.9 -8.5 3.1 -15.9 10 -11 10.3 -18.4 12.6 -32.5 10.2z"/>
 </g>
 <g fill="#2376a7">
  <path d="M584 1348.6 c0 -1.3 2.8 -2.6 5.8 -2.6 0.6 0 1.2 0.9 1.2 2 0 1.6 -0.7 2 -3.5 2 -2.3 0 -3.5 -0.5 -3.5 -1.4z"/>
  <path d="M457.8 730.3 l-5.8 -0.4 0 -53.9 0 -53.8 6.6 -0.7 c3.6 -0.4 15.2 -0.5 25.7 -0.2 28.7 0.7 39.4 4.2 51.8 16.6 10.8 10.9 14.3 20.7 14.3 40.1 0 17.9 -4.2 28.9 -15.2 39.9 -11.2 11.2 -18.5 13.1 -49.7 12.9 -12.1 -0.1 -24.6 -0.3 -27.7 -0.5z"/>
 </g>
 <g fill="#3f96ca">
  <path d="M585 1348.6 c0 -0.7 1 -1.6 2.3 -2 4.1 -1.1 5.7 -0.7 5.7 1.4 0 1.7 -0.7 2 -4 2 -2.7 0 -4 -0.4 -4 -1.4z"/>
  <path d="M230 1215.1 c0 -9.6 14 -47.9 26.9 -73.4 17.1 -34.1 35.8 -61 59.2 -85.4 24.4 -25.5 44.4 -40.6 71.9 -54.4 23.3 -11.7 44.3 -17.6 65.8 -18.6 l11.2 -0.6 0 3.5 c0 1.9 -0.9 6.1 -1.9 9.4 -3.3 10.1 -8.9 34.4 -10.6 45.8 -5.7 39.8 -0.8 71.4 16.5 106.1 10.7 21.5 27.4 43.1 44.7 57.8 7.3 6.2 8.3 7.4 8.3 10.4 l0 3.3 -146 0 -146 0 0 -3.9z"/>
  <path d="M659.3 833.9 c0.8 -6.7 9.7 -25.1 17.9 -37.1 6 -8.7 20 -24 26.2 -28.7 l2.9 -2.2 -2 -3.7 c-4.2 -7.4 -5.5 -14.5 -5.2 -27.6 0.4 -11.8 0.5 -12.3 4.5 -20.6 9.6 -19.9 26.1 -35.4 44.1 -41.4 13.6 -4.6 32.3 -4.2 42.4 1 12.1 6.1 23.1 21 26.1 35.4 l1.2 5.8 4.3 -3.8 c5.3 -4.6 15.8 -10.2 23.8 -12.6 9.1 -2.7 26.8 -2.6 36 0.3 26.1 8.2 44.5 35.8 44.5 66.6 l0 8.4 5.3 -0.9 c17.5 -3.3 31.2 3.7 39.1 19.8 6.2 12.5 10.6 30 10.6 41.5 l0 4.9 -161.1 0 -161.2 0 0.6 -5.1z"/>
  <path d="M482 836.1 c-51.2 -4.8 -94.5 -35.8 -116.3 -83.3 -7 -15.1 -11.6 -32.7 -13.7 -52 -1.3 -12.8 -1.4 -177.7 0 -181.2 l1 -2.6 73.5 0 c77.3 0 86.1 0.4 102.5 4.5 31.7 7.9 57.1 22.9 80.3 47.5 16.2 17.2 27.4 35.7 34.6 57.5 6.9 20.8 7.6 25.8 7.6 54 0 22.6 -0.2 26 -2.3 35.4 -9.1 40.5 -32 74 -65.7 96.3 -16.4 10.9 -36.6 19.1 -55 22.2 -10.8 1.9 -34.9 2.7 -46.5 1.7z m38.7 -63.6 c16.7 -4.5 28.3 -10.8 40.3 -22.2 16.1 -15.2 25.7 -32.2 30.1 -53.7 3.9 -18.9 1.4 -37.6 -7.7 -56.5 -14.8 -31.1 -41.4 -52 -77.4 -60.8 -5.3 -1.3 -14.8 -1.7 -50.8 -2 l-44.3 -0.4 0.3 61.8 c0.4 60.8 0.4 61.9 2.6 69.2 4.2 13.6 11.3 28.1 16.5 33.6 1.1 1.1 3 3.5 4.4 5.3 6.5 8.3 23.6 19.6 35.8 23.5 16.4 5.4 35.4 6.2 50.2 2.2z"/>
  <path d="M87.7 710.6 c-13.7 -4.9 -24.7 -14 -29.4 -24.3 -3.7 -8.1 -4.3 -20.9 -4 -81.4 0.3 -49.8 0.4 -52.7 2.4 -58.6 2.7 -8.1 6.4 -14.3 10.8 -18.2 4.5 -3.9 13.8 -8.6 19 -9.6 2.2 -0.4 4.5 -1 5 -1.3 0.6 -0.4 36.8 -0.4 80.5 -0.1 65.5 0.5 80.5 0.9 85 2.1 14.6 3.9 25.1 13.5 31.2 28.5 2.3 5.8 2.3 5.9 2.6 60.7 0.2 35.2 -0.1 57.5 -0.8 62 -1.2 8.3 -6.2 19.1 -11.5 25.4 -4.7 5.4 -14 11.8 -21.4 14.6 -5.5 2.1 -6.7 2.1 -84.1 2.3 l-78.5 0.3 -6.8 -2.4z"/>
  <path d="M822 263 c0 -3.9 0.1 -4 3.5 -4 3.4 0 3.5 0.1 3.5 4 0 3.9 -0.1 4 -3.5 4 -3.4 0 -3.5 -0.1 -3.5 -4z"/>
 </g>
 <g fill="#70bee1">
  <path d="M0 768 l0 -768 512 0 512 0 0 768 0 768 -512 0 -512 0 0 -768z m152.5 606.5 c6.5 -1.1 17.4 -7 26 -14 12.3 -10 14.9 -11 28 -11 10 0 11.5 0.2 16.2 2.7 2.8 1.5 8.2 5.5 12 8.8 3.7 3.3 10.2 7.7 14.2 9.8 6.8 3.4 8.2 3.7 15.5 3.7 10.4 0 15.4 -2.2 29.6 -12.9 15.1 -11.3 17.1 -12.1 31 -12.1 13.5 0 15.9 0.9 30.4 12 10.1 7.7 15.8 10.7 24.1 12.9 5.4 1.4 6.7 1.4 12.3 0.1 8.6 -2 12.5 -4.2 21.2 -11.9 4.1 -3.7 10.4 -8.1 14 -9.9 5.9 -2.9 7.3 -3.2 16 -3.2 11.5 0 14.9 1.4 28.2 11.1 11.3 8.3 20 12.4 27.6 13.1 6.4 0.6 12.2 -1.5 12.2 -4.3 0 -2.2 -6.1 -4.4 -12.4 -4.4 -7.5 0 -11.8 -1.9 -22.8 -10.1 -11 -8.1 -16.8 -11 -26.5 -13.4 -6.8 -1.6 -7.6 -1.6 -14.1 -0.1 -8.7 2.2 -15 5.8 -23.6 13.6 -9.9 8.9 -14.8 11 -26.5 11 -11.2 0 -14.2 -1.3 -27.7 -11.5 -10.3 -7.9 -16.2 -10.9 -26 -13 -6.5 -1.5 -7.6 -1.5 -13.5 0 -9.5 2.5 -13.7 4.7 -23 12.1 -4.6 3.6 -11.1 7.9 -14.4 9.5 -5.3 2.6 -7.1 2.9 -15.5 2.9 -11.7 0 -14.4 -1.2 -26 -11 -13.9 -11.7 -26.7 -16.5 -37.7 -14 -8.3 1.8 -16.7 6.1 -25.3 13.1 -4.1 3.3 -10.3 7.3 -13.6 8.9 -5.7 2.8 -7 3 -17 3 -13.1 0 -16.1 -1.2 -27 -10 -9.6 -7.8 -18.2 -12.5 -26.4 -14.4 -6 -1.4 -6.8 -1.4 -10 0.2 -6.7 3.3 -3.6 6.3 8.2 8 8.5 1.3 13.3 3.6 23.3 11.3 4.4 3.3 9.8 7.2 12.1 8.5 4.7 2.8 17.9 6.5 20.9 5.9 1.1 -0.2 3.8 -0.7 6 -1z m451.2 -19.6 c3.4 -1.1 9.1 -3.9 12.5 -6.3 3.5 -2.3 8.7 -5.9 11.5 -7.8 8.2 -5.7 15 -7.8 24.8 -7.8 10.9 0 16.8 2.2 26.5 10 13.6 11 24.1 14.6 35.1 12 7.2 -1.7 12.7 -4.6 22.8 -11.9 11.8 -8.6 17.1 -10.3 29.6 -9.9 11.5 0.3 13.8 1.3 27 10.8 8.7 6.3 14.1 9 22.2 10.9 9.5 2.3 20.8 -1.5 34.5 -11.6 10.4 -7.8 15.6 -9.7 27.3 -10.1 12.5 -0.5 17.6 1.3 29 9.8 14.5 10.9 26.1 14.8 38.8 13 7.7 -1.1 10.2 -2.2 11.7 -5 1.6 -3 -1.2 -5 -7.1 -5 -2.7 0 -4.9 0.5 -4.9 1 0 0.6 -1.8 1 -4 1 -3.3 0 -4 -0.3 -4 -2 0 -1.7 0.7 -2 5.1 -2 l5.1 0 -11.9 -11.7 c-23.4 -23.2 -40.4 -50.4 -55.6 -88.8 -22.5 -57.1 -26.6 -118.9 -12 -184.4 2.6 -11.8 2.7 -12.4 0.9 -13.6 -6.1 -4.5 -41.4 -2.4 -66.3 3.9 -45.7 11.6 -83 33.2 -118.4 68.6 -28.9 28.9 -50.2 58.6 -68.2 95.2 -5.8 11.7 -11.4 23.8 -12.6 26.8 -1.1 3 -3.7 9.8 -5.7 15 -8.2 21.5 -17.1 58.1 -19.4 79.8 -1.2 10.7 -0.7 15.3 1.3 13.3 1.9 -1.9 5.7 -1.3 5.7 0.9 0 1.3 -0.7 2 -2 2 -1.8 0 -1.9 0.2 -0.8 2.1 3.1 5.1 9 5.6 21.5 1.8z m-445.3 -63.9 c3.4 -1.3 10.3 -5.6 16.2 -10.1 15.8 -12 16.8 -12.4 30.4 -12.4 13.5 0 15 0.6 29.5 11.6 24.5 18.6 41 18.3 64 -1 2.8 -2.3 8.1 -5.7 11.9 -7.6 6.3 -3.2 7.6 -3.5 15.7 -3.5 11.8 0 17 2.1 28.9 11.5 17.1 13.6 26.6 16.6 39.7 12.7 7.8 -2.4 13.3 -5.8 21.9 -13.6 9 -8.1 13.3 -10 23.4 -10.4 9.9 -0.4 16.8 1.7 24.7 7.4 17.7 12.8 23.1 15.5 34.7 17.4 4.6 0.7 6.4 0.6 8.6 -0.5 7 -3.6 3 -8.1 -8 -8.7 -9.5 -0.6 -14 -2.6 -26.6 -11.8 -11.2 -8.2 -15.9 -10.5 -25.7 -12.6 -12.3 -2.6 -22.1 1.5 -38.7 15.9 -7.6 6.7 -13.1 8.7 -23.8 8.7 -11.1 0 -14.7 -1.5 -26.2 -11 -8.6 -7.1 -18.8 -12.2 -27.7 -14 -11.9 -2.4 -22.5 2.1 -42.8 18 -7 5.5 -12 7 -23.7 7 -11.7 0 -15 -1.3 -26.8 -10.9 -9.4 -7.6 -17 -11.5 -26.5 -13.6 -6.4 -1.4 -8.3 -1.5 -12.7 -0.4 -10 2.3 -16.9 6.1 -28.7 15.7 -9.7 7.8 -13.6 9.2 -25.3 9.2 -11.8 0 -14.4 -1 -24.8 -9 -10.4 -8.1 -15.1 -10.9 -21.9 -13 -8.8 -2.8 -15.1 -2.7 -17.9 0.3 l-2.2 2.3 2.2 2.1 c1.6 1.4 4.3 2.2 8.7 2.7 9.3 0.9 13 2.3 20.7 7.7 15.5 10.9 17.6 12.2 23.6 14.5 7.7 3 16.4 2.8 25.2 -0.6z m355.6 -79.7 c-13.4 -11.3 -29.5 -29.7 -39.5 -45.1 -10.1 -15.7 -20.2 -40.4 -23.9 -58.3 -5.8 -28.2 -4.2 -62.6 4.4 -96.7 1.7 -6.7 2.8 -12.7 2.5 -13.2 -0.3 -0.6 -0.2 -1 0.4 -1 0.6 0 1.5 -1.8 2.1 -4.1 0.6 -2.2 1.4 -4.7 1.7 -5.6 1.5 -3.8 -28.5 0.9 -47.1 7.4 -11.6 4 -33.6 14.7 -44.6 21.8 -36.2 23.2 -70.9 60.2 -96.2 102.5 -14.7 24.6 -29.5 57.7 -37.2 83.3 -2 6.5 -3.6 12.2 -3.6 12.8 0 0.5 54.3 0.9 143.3 0.9 l143.2 0 -5.5 -4.7z m-297.6 -192.3 c12.1 -1.5 24 -5.2 34.7 -10.6 2.6 -1.3 5.4 -2.4 6.3 -2.4 0.9 0 1.9 -0.7 2.2 -1.5 0.4 -0.8 1.2 -1.5 2 -1.5 0.8 0 1.4 -0.4 1.4 -1 0 -0.5 0.7 -1 1.5 -1 0.8 0 1.5 -0.4 1.5 -1 0 -0.5 0.7 -1 1.5 -1 0.8 0 1.5 -0.5 1.5 -1 0 -0.6 1.1 -1.5 2.5 -2 1.4 -0.5 2.5 -1.4 2.5 -2 0 -0.5 0.6 -1 1.4 -1 0.7 0 2.7 -1.5 4.5 -3.2 1.8 -1.8 4.4 -4.5 5.9 -6 1.5 -1.6 3 -2.8 3.3 -2.8 0.4 0 1.4 -1.6 2.3 -3.5 0.9 -1.9 2.3 -3.5 3.1 -3.5 0.7 0 1.7 -1 2.1 -2.2 0.4 -1.2 1.7 -3.1 3 -4.1 1.3 -1 2.4 -2.7 2.4 -3.8 0 -1 0.5 -1.9 1 -1.9 0.6 0 1 -0.6 1 -1.4 0 -0.8 0.7 -1.6 1.5 -2 0.8 -0.3 1.5 -1.4 1.5 -2.5 0 -1.1 0.7 -2.6 1.5 -3.5 0.8 -0.8 1.5 -2.1 1.5 -2.9 0 -0.8 0.9 -2.4 2 -3.7 1.1 -1.3 2.3 -3.5 2.6 -4.9 1.3 -6.7 4.8 -19.7 5.4 -20.1 0.3 -0.3 1.2 -6.6 1.8 -14 1 -10 1 -15.6 0.2 -21.5 -0.6 -4.4 -1.4 -10.4 -1.7 -13.2 -0.3 -2.9 -0.9 -5.3 -1.3 -5.3 -0.4 0 -1 -2.2 -1.4 -5 -0.4 -2.7 -1.1 -5 -1.6 -5 -0.6 0 -1 -1.1 -1 -2.5 0 -1.4 -0.4 -2.5 -1 -2.5 -0.5 0 -1.3 -1.2 -1.6 -2.7 -0.8 -3.5 -6.6 -14.3 -7.6 -14.3 -0.5 0 -0.8 -0.5 -0.8 -1.1 0 -1 -3 -5.3 -8 -11.4 -5.5 -6.8 -20.2 -20.6 -27.1 -25.5 -8.8 -6.2 -27 -15.2 -35.4 -17.5 -11.5 -3.2 -36.4 -5.6 -42.5 -4.2 -1.4 0.3 -6.3 1.1 -11 1.8 -4.7 0.7 -8.9 1.6 -9.5 2.1 -0.5 0.4 -1.7 0.8 -2.7 0.8 -1 0 -2.8 0.5 -4.1 1.2 -4.6 2.4 -5.7 2.8 -7.1 2.8 -0.9 0 -3.8 1.4 -6.6 3 -2.8 1.7 -5.7 3 -6.5 3 -0.8 0 -1.5 0.4 -1.5 0.9 0 0.5 -1.1 1.2 -2.5 1.5 -1.4 0.4 -2.5 1.1 -2.5 1.6 0 0.6 -0.6 1 -1.4 1 -0.8 0 -1.6 0.7 -2 1.5 -0.3 0.8 -1.2 1.5 -2.1 1.5 -0.8 0 -1.5 0.5 -1.5 1 0 0.6 -0.6 1 -1.3 1 -0.7 0 -1.8 0.9 -2.5 2 -0.7 1.1 -1.8 2 -2.4 2 -0.7 0 -4.2 3.2 -7.9 7 -3.6 3.9 -7.2 7 -7.8 7 -0.6 0 -1.1 0.6 -1.1 1.3 0 0.6 -1 2.4 -2.3 3.9 -16.2 19.3 -26.7 48.7 -26.8 75.3 0 15.5 3.6 31.2 11.4 49.5 2.2 5.2 4.4 9.7 4.9 9.8 0.4 0.2 0.8 0.9 0.8 1.6 0 0.7 0.9 2.3 2 3.6 1.1 1.3 2 2.6 2 3 0 0.4 0.8 1.6 1.8 2.8 0.9 1.1 2.8 3.6 4.2 5.4 4.7 6.2 16.5 17.4 24.4 23.2 13.6 10.1 30 17.3 47 20.7 9.5 1.8 28 3.6 29.6 2.8 0.8 -0.4 5.5 -1.3 10.4 -1.9z m330.5 -30.5 c2.7 -1.5 8.8 -5.9 13.7 -9.7 4.9 -3.9 11.8 -8.5 15.4 -10.2 5.8 -2.7 7.5 -3 16 -3.1 11.8 0 16.8 2.1 28.4 11.7 9.5 8 15.4 11.3 23.2 13.1 10.8 2.5 22.6 -1.5 37.4 -12.9 4.1 -3.1 10.3 -7 13.7 -8.6 5.9 -2.8 6.9 -3 16.5 -2.6 12.6 0.4 16 1.8 27.3 11.8 4.4 3.9 10.9 8.5 14.5 10.3 5.7 2.8 7.4 3.2 14.5 3.2 10.2 0 15.4 -2.4 29.8 -13.3 13.1 -10 18.7 -12.2 30.7 -12.2 12.3 0 15.8 1.7 33.1 15.9 3 2.4 8.3 5.7 11.9 7.4 12.7 5.8 25 2.5 42.2 -11.2 4.8 -3.8 10.7 -7.9 13.2 -9 5.7 -2.8 14.7 -4.3 21.6 -3.5 4.6 0.5 5.9 0.3 8 -1.4 l2.5 -2.1 -2.3 -2.3 c-2.1 -2.1 -3.1 -2.3 -12 -2.3 -12.6 0.1 -17.4 2 -31.9 12.8 -13.8 10.4 -18 12.1 -29.3 12.1 -10.3 -0.1 -12.8 -1.2 -25.5 -11.5 -9.8 -7.9 -17.7 -11.9 -27.1 -13.9 -5.1 -1 -7 -1 -12.2 0.4 -8.2 2.1 -16.2 6.3 -24.7 13 -14 11.1 -19.7 13.2 -32.5 12 -7.3 -0.7 -11.9 -3.2 -22.5 -12.4 -7.3 -6.2 -15.1 -10.4 -23.9 -12.6 -6.1 -1.5 -7.1 -1.5 -13.2 0 -8.8 2.2 -14.8 5.4 -25.8 13.5 -12.5 9.3 -17.2 11.1 -28.6 11.1 -10.7 0 -14.2 -1.5 -25.8 -10.8 -10.2 -8.2 -16.9 -12 -24.3 -13.9 -5.4 -1.4 -7.3 -1.4 -12.3 -0.4 -8.2 1.7 -17.7 6.7 -27.7 14.6 -10.1 8 -12 9.1 -19.9 10.9 -6.7 1.6 -9 3 -9 5.5 0 4.9 8.3 5.2 16.9 0.6z m117.6 -77 c3.8 -1.8 10.8 -6.1 15.4 -9.4 13.9 -10.1 17.8 -11.6 29.6 -11.6 12.2 0 15.3 1.2 27.5 11 4.7 3.7 11.9 8.4 16 10.4 6.7 3.2 8.4 3.6 15.5 3.6 7.1 0 8.8 -0.4 14.8 -3.3 3.7 -1.9 10.6 -6.3 15.3 -9.9 12.9 -9.8 17.8 -11.8 29.4 -11.8 8.3 0 10.2 0.3 15 2.7 3 1.5 9.1 5.7 13.5 9.3 4.4 3.6 10.9 8 14.5 9.8 5.6 2.8 7.5 3.2 14.5 3.2 10.3 0 15.3 -2.2 29.4 -12.9 14.4 -10.8 17 -11.8 31.1 -12.5 13.5 -0.7 15.1 -1.3 12 -4.6 -5.7 -6.1 -21.2 -4.9 -33.2 2.5 -2.8 1.8 -8.1 5.6 -11.7 8.5 -10.6 8.5 -14 9.8 -25.9 10.3 -9.4 0.4 -10.6 0.2 -15.5 -2.2 -3 -1.4 -7.9 -4.8 -11.1 -7.6 -11 -9.7 -18.3 -13.6 -28.1 -15.3 -5.2 -0.9 -7.3 -0.8 -12.9 0.7 -3.6 1 -6.9 2.2 -7.2 2.7 -0.3 0.5 -1.3 0.9 -2.2 0.9 -1 0 -6.2 3.4 -11.7 7.6 -14.9 11.3 -18 12.6 -30 13.2 -9.7 0.4 -10.2 0.3 -15.8 -2.7 -3.2 -1.7 -8.2 -5 -11 -7.4 -16.8 -14.1 -30.1 -18 -44.2 -12.6 -6.7 2.5 -10.9 5 -21 12.5 -12.5 9.3 -13.6 9.7 -26.3 10.2 -10.5 0.4 -11.6 0.2 -16.5 -2.1 -2.9 -1.5 -7.6 -4.7 -10.6 -7.2 -10.9 -9.3 -18.4 -13.4 -28.3 -15.5 -4.7 -0.9 -6.8 -0.8 -12.2 0.5 -9.1 2.3 -13.8 4.8 -23.4 12.2 -9.1 7.1 -14.4 9.8 -21.4 10.8 -7.5 1.1 -10.2 6.6 -4 8.2 5.8 1.4 16.2 -3 27 -11.6 4 -3.2 9.9 -7.1 13 -8.7 5.2 -2.6 6.7 -2.9 15.7 -2.9 12.1 0 14.9 1.1 28.4 11.3 19.3 14.7 31.1 17.2 46.6 9.7z m313 -81.2 c-2.3 -19.7 -10.7 -40.3 -19.5 -47.6 -7.7 -6.6 -15.2 -8.6 -24.5 -6.7 -3.3 0.7 -7.1 1.4 -8.5 1.7 l-2.5 0.5 0.3 -8.7 c1 -24.8 -11.1 -48.6 -31.3 -61.7 -21 -13.7 -49.5 -10 -69.5 8.9 l-6.6 6.1 -1.6 -8 c-4.8 -23.1 -20.3 -39.6 -39 -41.7 -27.1 -3 -53.8 14.2 -68.2 43.8 -3.6 7.6 -4.1 9.4 -4.4 17.6 -0.5 10.9 1.2 18.1 6.3 26.7 l3.4 5.7 -6.5 5.1 c-8.4 6.8 -18.1 17.5 -25.5 28.3 -5.7 8.2 -16 28.4 -17.2 33.5 l-0.5 2.2 158 0 158 0 -0.7 -5.7z m-471.5 2.8 c0 -0.5 2 -0.6 4.4 -0.4 6.2 0.7 22.3 -2.2 34.6 -6.3 50.8 -16.9 88 -58.1 100.7 -111.4 3 -12.7 4.3 -41.2 2.4 -55 -1.4 -11 -4.2 -23 -5.3 -23 -0.5 0 -0.7 -0.4 -0.4 -0.9 1.9 -3 -11.8 -32.6 -21.5 -46.7 -6.2 -8.9 -21.8 -25.6 -31.3 -33.3 -23.2 -19 -53.7 -31.9 -82.8 -35 -5.9 -0.7 -37.6 -1.1 -80.3 -1.1 l-70.5 0 -1 2.6 c-1.4 3.5 -1.3 162.5 0 175.2 5 47 25.8 84.2 61.5 110.3 13.7 10 36.6 19.8 53.5 22.9 12.3 2.4 36 3.7 36 2.1z m-251.9 -125.7 c7.4 -2.8 16.7 -9.2 21.4 -14.6 5.4 -6.3 10.3 -17.1 11.5 -25.4 0.7 -4.5 1 -25.8 0.8 -59 -0.3 -51.7 -0.3 -51.9 -2.6 -57.7 -6.2 -15.2 -17.3 -25.2 -32.2 -28.8 -4.2 -1 -23.4 -1.4 -81.5 -1.9 -41.8 -0.3 -76.4 -0.2 -77 0.2 -0.5 0.3 -2.8 0.9 -5 1.3 -5.2 1 -14.5 5.7 -19 9.6 -4.5 4 -8.2 10.2 -10.7 18.2 -1.9 5.8 -2 9.5 -2.3 56.2 -0.4 58.8 0.2 70 3.8 77.8 4.7 10.3 15.7 19.4 29.4 24.3 l6.8 2.4 75.5 -0.3 c74.3 -0.2 75.6 -0.2 81.1 -2.3z m544.4 -116.4 c12.6 -1.2 36.4 -4.9 38.3 -5.9 0.9 -0.5 -0.7 -2.9 -5.3 -8.2 -16.9 -19 -28.7 -42.2 -34.2 -67.1 -1.3 -6.3 -1.8 -12.6 -1.7 -26.3 0 -20.3 1.3 -29.1 7.1 -48.8 4.6 -15.7 5.9 -21.5 4.9 -22.4 -0.4 -0.5 -10.7 -0.8 -22.9 -0.8 -25 0.1 -34.3 1.4 -54.4 8.1 -42.5 14.1 -80 46.4 -90.5 77.9 -1.8 5.7 -2.3 9.1 -2.2 18 0 9.6 0.3 11.9 2.7 18 9.4 23.7 34.5 41.8 71.1 51.5 10.2 2.6 26.2 5.5 36.1 6.3 9.4 0.8 40.9 0.6 51 -0.3z m-673.1 -140.4 c2.8 -1.4 8.3 -5.3 12.1 -8.6 3.9 -3.3 9.4 -7.2 12.2 -8.6 4.9 -2.4 6 -2.6 16 -2.2 12.3 0.4 13.3 0.8 25.6 10 8.7 6.4 17.8 11.1 23.9 12.2 4.8 0.9 15.2 -1.8 20.5 -5.2 2.3 -1.5 7.8 -5.5 12.2 -8.9 8.9 -6.8 15.2 -9.3 23.5 -9.3 10.3 0 17.3 3.1 28.1 12.3 11.9 10.3 21.7 13.4 31.6 10.2 6.7 -2.2 10.1 -4.2 21.3 -12.7 11 -8.3 16 -10.1 26.4 -9.6 9.6 0.4 14 2.5 24.7 11.4 9 7.6 16 11.2 23.2 12 4 0.5 5.3 0.2 7.6 -1.6 5.5 -4.3 1.8 -8 -8.1 -8 -7.8 0 -13.3 -2.6 -22.9 -10.9 -8.1 -7 -13.2 -9.8 -21 -11.6 -10.3 -2.4 -21.8 1.7 -35.4 12.6 -10.6 8.4 -14.2 9.9 -24.1 9.9 -10.3 0 -13.7 -1.5 -24.1 -10.2 -9.2 -7.7 -14.4 -10.4 -22.2 -11.9 -10.9 -2 -21.6 1.9 -33.5 12.3 -11 9.5 -12.6 10.2 -24.5 10.2 -11.5 0 -11.4 0 -24 -9.4 -4.9 -3.7 -11.3 -8 -14 -9.4 -6.2 -3.2 -14.7 -4.9 -20 -4 -6.5 1 -15.5 5.8 -23 12.3 -10.4 9.1 -14 10.5 -25.3 10.4 -10.5 -0.2 -12.7 -1.1 -24.2 -10.3 -8 -6.4 -11 -8 -17.9 -9.6 -5.5 -1.3 -7.6 -0.9 -9.9 1.9 -2.1 2.5 1.3 5.7 6.1 5.7 5.6 0.1 11.3 2.8 19.9 9.6 16 12.4 27 15 39.2 9z m-1.4 -71.7 c3.1 -1.5 8.5 -5.2 12 -8.4 9.5 -8.5 16.5 -11.5 26.5 -11.5 10.4 0 15.5 1.9 25.2 9.3 4.3 3.3 10.7 7.3 14.3 9.1 5.7 2.7 7.5 3.1 15 3.1 7.6 0 9.1 -0.4 14.5 -3.2 3.3 -1.7 8.5 -5.2 11.5 -7.8 8.7 -7.2 15.1 -9.9 24.5 -10.3 4.5 -0.2 9.9 0.1 12.2 0.7 4 1.1 6 2.3 20.5 12.9 17 12.4 30.1 11.8 49.2 -2.4 12.2 -9.1 15.3 -10.4 25.2 -10.4 10.5 0 13 0.9 24.4 9 11.1 7.9 14.7 9.8 21.5 11.6 7 1.9 10.8 1.7 13.9 -0.7 5.5 -4.4 2.2 -7.5 -8.9 -8.1 -10 -0.6 -16.5 -3.2 -16.5 -6.6 0 -1.9 0.4 -2.3 1.8 -1.7 4.3 1.8 4.7 1.3 4.5 -5.5 -0.4 -8.5 -3.5 -25.4 -7.8 -41.2 -9.9 -36.6 -29.9 -77 -54.8 -110.8 -42.9 -58.2 -103.6 -97 -171.6 -109.6 -13.3 -2.4 -35.9 -4.3 -44.5 -3.6 l-4.3 0.4 2.9 10.1 c6.7 24 9.8 46.9 9.8 73.2 0 56.7 -14.4 102.9 -47.3 151.6 -17.9 26.5 -16.4 23.5 -13.8 27 l2.2 2.9 -3 0 c-1.7 0 -5.1 -1.3 -7.5 -2.9 -6.2 -3.8 -13.1 -5.8 -15.1 -4.1 -3.8 3.1 -1.9 9 3 9 5.4 0 12.3 3.2 20 9.3 12.4 10 19.2 12.8 29 12.4 3.8 -0.2 8 -1.2 11.5 -2.8z m641.3 -29.5 c10.2 -2.6 15.1 -5.6 24.6 -14.7 14.3 -13.8 24.2 -37.3 31.7 -75.4 0.3 -1.9 1.1 -2.3 3.8 -2.3 3.3 0 3.4 0.2 4.1 4.8 2.7 18 12 45.7 19.6 58.5 12.5 20.8 33.1 33 50.2 29.9 25.1 -4.7 43.1 -22.9 46.3 -47 2 -15.2 -6.9 -34.2 -20.9 -44.6 -13.4 -10 -27.1 -16 -50.6 -22.5 l-13.6 -3.7 -0.3 -3.5 -0.3 -3.6 12.8 -4.2 c27.4 -9.2 45.6 -18.1 56.3 -27.9 25.6 -23.1 23.4 -57.7 -4.7 -76.4 -18.9 -12.6 -35.8 -12.7 -54 -0.6 -11.9 8 -22.1 22.5 -30.8 43.8 -2.8 7 -8.9 29.5 -10 37.3 -0.7 4.6 -0.8 4.7 -4.1 4.7 -3.8 0 -3.7 0.3 -5.4 -9.5 -0.7 -3.8 -2.7 -12 -4.5 -18 -12.5 -42.7 -38.2 -69.4 -64.9 -67.2 -17 1.4 -32.6 11.5 -41 26.5 -7.3 12.9 -8.5 23.5 -4.2 36.1 6.1 17.9 20.7 31 46.9 42.1 10.8 4.6 25.7 9.7 34.5 12 3.9 1 4.2 1.3 4.2 4.4 0 3.4 -0.1 3.4 -7.2 5.5 -31.7 9.2 -46.3 16 -61.1 28.4 -10.7 9.1 -19.1 26.4 -19 39.2 0.1 13.5 8.8 29.5 20.7 38 14.2 10.1 27.6 13.4 40.9 9.9z"/>
  <path d="M587 1348.6 c0 -1.4 2.9 -2.6 6.8 -2.6 1.5 0 2.2 0.6 2.2 2 0 1.7 -0.7 2 -4.5 2 -3.2 0 -4.5 -0.4 -4.5 -1.4z"/>
  <path d="M479 776.4 c-9.2 -2 -15.5 -4.2 -23.1 -8 -7.4 -3.7 -20.3 -13.6 -24.2 -18.6 -1.4 -1.8 -3.3 -4.2 -4.4 -5.3 -5.2 -5.5 -12.3 -20 -16.5 -33.6 -2.2 -7.3 -2.2 -8.3 -2.6 -72.1 l-0.3 -64.8 42.8 0 c25.1 0 45.7 0.5 49.8 1.1 3.9 0.6 8.2 1.2 9.6 1.3 1.4 0.2 3 0.5 3.5 0.8 0.5 0.3 4.1 1.5 7.9 2.8 15.5 4.9 34.2 16.7 45.5 28.6 11.8 12.5 21.8 30 26.1 45.9 3.3 12.1 3.7 31.9 1 45.1 -4.4 21.5 -13.9 38.5 -30.1 53.7 -12 11.4 -23.6 17.7 -40.3 22.2 -7.9 2.1 -11.2 2.5 -23.7 2.4 -8.4 -0.1 -17.3 -0.7 -21 -1.5z m32.4 -49.9 c8.2 -1.7 14.4 -5.2 20.8 -11.6 10.5 -10.5 15 -21.5 15 -36.9 0.1 -16.7 -3.7 -26.6 -14.1 -37.1 -11.8 -11.9 -23.2 -15.8 -48.7 -16.6 -8.8 -0.3 -19.1 -0.2 -22.7 0.1 l-6.7 0.8 0 50.8 0 50.9 5.8 0.4 c16.5 1 44.1 0.6 50.6 -0.8z"/>
  <path d="M115 370.7 c0 -0.8 1.6 -1.8 3.5 -2.4 3.3 -1.1 3.5 -1 3.5 1.3 0 2.1 -0.5 2.4 -3.5 2.4 -2.2 0 -3.5 -0.5 -3.5 -1.3z"/>
 </g>
 <g fill="#b7dae3">
  <path d="M590 1348.6 c0 -0.8 1.8 -1.8 4 -2.4 3.8 -0.9 4 -0.9 4 1.4 0 2.1 -0.4 2.4 -4 2.4 -2.7 0 -4 -0.4 -4 -1.4z"/>
  <path d="M200.9 1024.6 c-0.3 -0.3 -8.5 -1.1 -21.1 -2.1 -1.6 -0.2 -2.9 -0.4 -3 -0.5 -0.2 -0.1 -1.2 -0.4 -2.3 -0.6 -1.9 -0.2 -6.7 -1.3 -9 -1.8 -1.1 -0.3 -1.5 -0.5 -12 -4.3 -18 -6.5 -39.8 -22.7 -51.5 -38.1 -1.4 -1.8 -3.3 -4.3 -4.3 -5.4 -0.9 -1.2 -1.7 -2.4 -1.7 -2.8 0 -0.4 -0.9 -1.7 -2 -3 -1.1 -1.3 -2 -2.9 -2 -3.7 0 -0.7 -0.3 -1.3 -0.7 -1.3 -0.5 0 -1.9 -2.7 -3.3 -6 -1.4 -3.3 -2.9 -6 -3.3 -6 -0.5 0 -0.5 -0.4 -0.2 -1 0.3 -0.5 0.2 -1 -0.4 -1 -0.6 0 -0.8 -0.7 -0.5 -1.5 0.4 -0.8 0.1 -1.5 -0.6 -1.5 -0.6 0 -0.9 -0.3 -0.7 -0.7 0.3 -0.5 0 -1.9 -0.6 -3.3 -0.5 -1.4 -1.2 -3.6 -1.4 -5 -0.2 -1.4 -0.8 -2.6 -1.3 -2.8 -0.5 -0.2 -0.7 -0.9 -0.4 -1.7 0.3 -0.7 0.1 -1.6 -0.5 -1.9 -0.6 -0.4 -0.8 -1.3 -0.5 -2 0.3 -0.8 0.1 -1.7 -0.5 -2 -0.6 -0.4 -0.8 -1.3 -0.5 -2.1 0.3 -0.8 0.2 -2 -0.2 -2.7 -1.1 -1.7 -1.2 -3.3 -1.6 -21.5 -0.2 -8.8 0 -15.3 0.5 -15.3 0.5 0 0.7 -1.6 0.5 -3.5 -0.2 -1.9 0 -3.5 0.5 -3.5 0.5 0 0.7 -1.1 0.5 -2.5 -0.3 -1.3 -0.1 -2.6 0.3 -2.7 0.5 -0.2 1 -1.9 1.1 -3.8 0.2 -1.9 0.6 -3.7 1 -4 0.4 -0.3 0.9 -1.7 1 -3 0.2 -1.4 0.5 -2.7 0.8 -3 1.3 -1.1 4.9 -11.3 4.4 -12.1 -0.3 -0.5 0 -0.9 0.6 -0.9 0.6 0 0.8 -0.4 0.5 -1 -0.3 -0.5 -0.1 -1 0.5 -1 0.6 0 0.8 -0.4 0.5 -1 -0.3 -0.5 -0.1 -1 0.6 -1 0.7 0 1 -0.3 0.7 -0.6 -0.3 -0.3 0.5 -1.7 1.8 -3.1 1.4 -1.5 2.3 -3.2 2 -3.9 -0.3 -0.7 0.2 -1.5 1 -1.8 0.9 -0.3 1.3 -1 1 -1.5 -0.3 -0.5 0.1 -1.2 1 -1.5 0.8 -0.3 1.2 -1 0.9 -1.6 -0.3 -0.5 0.1 -1 0.9 -1 1.4 0 2 -1.2 1.7 -3.2 0 -0.5 0.5 -0.8 1.3 -0.8 1.3 0 3.1 -2.7 2.7 -4.3 0 -0.4 0.7 -1 1.6 -1.4 2.2 -0.8 14.2 -13.1 13.5 -13.8 -0.3 -0.3 0.4 -0.5 1.5 -0.5 2.2 0 4.7 -2.3 3.6 -3.3 -0.3 -0.4 0.4 -0.7 1.6 -0.7 1.2 0 2 -0.4 1.6 -0.9 -0.3 -0.5 0.5 -1.1 1.7 -1.3 1.3 -0.2 2.2 -0.9 2 -1.6 -0.1 -0.6 0.7 -1.2 1.9 -1.2 1.1 0 1.8 -0.4 1.5 -0.9 -0.4 -0.5 0.7 -1.2 2.4 -1.6 1.7 -0.4 2.8 -1.1 2.4 -1.6 -0.3 -0.5 0.4 -0.9 1.5 -0.9 1.1 0 4.3 -1.3 7.1 -3 2.8 -1.6 5.9 -3 7 -3 1 0 2.3 -0.7 2.8 -1.7 0.6 -0.9 1.6 -1.4 2.5 -1 0.9 0.3 2.1 -0.1 2.8 -0.9 0.7 -0.8 1.9 -1.4 2.8 -1.2 0.9 0.1 2.6 -0.4 3.9 -1.1 1.2 -0.6 3.2 -0.9 4.2 -0.6 1.2 0.4 2 0.2 2 -0.5 0 -0.8 0.9 -1 2.5 -0.6 1.4 0.4 2.5 0.2 2.5 -0.3 0 -1.1 1.7 -1.1 20.5 -1 16.3 0.1 27.2 1.1 30.6 2.9 0.9 0.5 3.8 1.4 6.5 2 6.8 1.5 25.4 10.8 34.3 17 6.9 4.9 21.6 18.7 27.1 25.5 5 6.1 8 10.4 8 11.4 0 0.6 0.4 1.1 0.8 1.1 1.2 0 8.3 13.6 7.5 14.3 -0.3 0.4 -0.1 0.7 0.6 0.7 0.7 0 1 0.4 0.7 0.9 -0.4 0.5 -0.1 1.1 0.4 1.3 0.6 0.2 1.2 1.3 1.3 2.6 0 1.2 0.4 2.2 0.8 2.2 0.6 0 2.2 5.8 2.3 8.5 0.1 0.6 0.4 1.3 0.9 1.6 0.4 0.3 0.9 2.5 1.1 5 0.2 2.4 0.5 4.4 0.6 4.4 0.9 0 1.8 11.2 1.8 22 0 4.4 0 9.6 0.1 11.5 0 1.9 -0.2 4.2 -0.5 5 -0.3 0.8 -0.8 3.8 -1 6.5 -0.3 2.8 -0.8 5.1 -1.3 5.3 -0.5 0.2 -0.7 1.2 -0.4 2.2 0.3 1.1 0.1 2 -0.5 2 -0.6 0 -0.8 0.9 -0.5 2 0.3 1.1 0 2 -0.6 2 -0.5 0 -0.8 0.7 -0.5 1.5 0.4 0.8 0.2 1.5 -0.4 1.5 -0.6 0 -0.8 0.9 -0.5 2 0.3 1.2 0 2 -0.6 2 -0.7 0 -1 0.4 -0.6 0.9 0.7 1.3 -2.4 9.1 -3.7 9.1 -0.5 0 -0.6 0.5 -0.3 1 0.3 0.6 0.2 1 -0.4 1 -0.6 0 -0.8 0.7 -0.5 1.5 0.4 0.8 -0.1 1.7 -1 2.1 -0.9 0.3 -1.3 1 -1 1.5 0.3 0.5 0.1 0.9 -0.5 0.9 -0.6 0 -0.8 0.6 -0.5 1.4 0.3 0.8 -0.4 2 -1.5 2.8 -1.2 0.8 -1.8 1.8 -1.5 2.1 0.4 0.4 -0.1 0.9 -1 1.3 -0.9 0.3 -1.3 1 -1 1.5 0.3 0.5 -0.9 2.4 -2.7 4.2 -1.8 1.7 -3.1 3.2 -3 3.2 0.1 0 -0.1 0.7 -0.4 1.7 -0.4 0.9 -1.6 1.8 -2.7 2.1 -1.1 0.3 -1.7 1 -1.4 1.5 0.3 0.5 -1.3 2.7 -3.5 4.8 -2.3 2.2 -4.6 4.5 -5.3 5.2 -3.7 4.3 -7.1 7.2 -8.3 7.2 -0.8 0 -1.2 0.4 -0.9 0.9 0.3 0.5 -0.8 1.4 -2.5 2 -1.7 0.6 -2.8 1.5 -2.4 2.1 0.3 0.6 -0.3 1 -1.5 1 -1.2 0 -1.8 0.5 -1.5 1 0.3 0.6 -0.3 1 -1.5 1 -1.2 0 -1.8 0.5 -1.5 1 0.3 0.6 -0.3 1 -1.5 1 -1.2 0 -1.8 0.4 -1.5 1 0.3 0.5 -0.7 1.2 -2.2 1.6 -1.5 0.4 -4.8 1.7 -7.3 2.9 -6.8 3.4 -9 4.2 -15.2 6.1 -3.2 1 -5.8 2.1 -5.8 2.5 0 0.4 -0.8 0.5 -1.9 0.2 -1 -0.3 -2.2 0 -2.5 0.5 -0.3 0.6 -1.5 0.8 -2.6 0.5 -1.2 -0.3 -2 0 -2 0.7 0 0.8 -1 0.9 -3 0.5 -1.6 -0.4 -3.5 -0.3 -4.2 0.1 -0.7 0.5 -2.7 0.7 -4.4 0.5 -1.8 -0.1 -3.5 0.2 -3.9 0.8 -0.6 1 -6.6 1.6 -7.6 0.7z"/>
  <path d="M100.3 372.6 c-1.4 -0.6 -2.3 -2 -2.3 -3.4 0 -1.8 0.4 -2.1 2.3 -1.7 9.4 2.1 15.8 2.1 21 0 1.4 -0.6 1.7 -0.2 1.7 1.9 0 2.3 -0.4 2.6 -3.4 2.6 -1.9 0 -3.8 0.5 -4.1 1 -0.8 1.3 -12.4 1.1 -15.2 -0.4z"/>
  <path d="M217 371.1 c0 -1.7 0.6 -2.1 3 -2.1 3.5 0 12.9 -4 14.9 -6.3 2 -2.5 3.1 -2.1 3.1 1.3 0 2.5 -0.4 3 -2.5 3 -1.6 0 -2.5 0.6 -2.5 1.5 0 0.9 -0.9 1.5 -2.4 1.5 -1.3 0 -2.6 0.5 -2.8 1 -0.2 0.6 -2.7 1.3 -5.6 1.7 -4.8 0.5 -5.2 0.4 -5.2 -1.6z"/>
  <path d="M146 350.7 c0 -0.8 1.6 -1.8 3.5 -2.4 3.3 -1.1 3.5 -1 3.5 1.3 0 2.1 -0.5 2.4 -3.5 2.4 -2.2 0 -3.5 -0.5 -3.5 -1.3z"/>
  <path d="M784.1 231.3 c-1 -0.4 -0.5 -1 1.5 -1.8 l2.9 -1.2 -2.7 -0.8 c-4.6 -1.2 -3.5 -3.5 1.7 -3.5 l4.5 0 0 4 c0 3.9 -0.1 4 -3.2 3.9 -1.8 0 -3.9 -0.3 -4.7 -0.6z"/>
 </g>
 <g fill="#dce4db">
  <path d="M135.3 1377.3 c-5.2 -1.2 -6.3 -1.8 -6.3 -3.5 0 -1.9 0.4 -2 5.3 -1.4 2.8 0.3 9.4 0.6 14.5 0.6 8.4 0 9.2 0.2 9.2 1.9 0 1.5 -1.1 2.2 -5 3 -6.5 1.4 -10 1.3 -17.7 -0.6z"/>
  <path d="M260 1378.4 c-6.2 -1.1 -7 -1.5 -7 -3.4 0 -1.7 1 -1.9 9.3 -2.3 5 -0.2 12.5 -1 16.4 -1.7 7.6 -1.4 10.1 -0.8 6.9 1.6 -5.2 3.8 -19.1 6.9 -25.6 5.8z"/>
  <path d="M375.8 1377.4 c-4.6 -1.3 -5.8 -2 -5.8 -3.6 0 -1.9 0.4 -2 5.8 -1.4 3.1 0.4 9.2 0.7 13.5 0.6 7 -0.1 7.7 0.1 7.7 1.8 0 1.1 -0.8 2.3 -1.7 2.7 -3.9 1.4 -14 1.4 -19.5 -0.1z"/>
  <path d="M491.8 1376.3 c-1 -0.2 -1.8 -1.3 -1.8 -2.4 0 -1.5 0.7 -1.9 3.5 -1.9 3.1 0 3.5 0.3 3.5 2.5 0 2.5 -1.1 2.9 -5.2 1.8z"/>
  <path d="M138 1365 c0 -1.8 0.7 -2 6.5 -2 5.8 0 6.5 0.2 6.5 2 0 1.8 -0.7 2 -6.5 2 -5.8 0 -6.5 -0.2 -6.5 -2z"/>
  <path d="M584 1360 c-3.4 -1.5 -6 -5 -6 -8.3 0 -3.4 2.9 -4.7 10.3 -4.7 3.3 0 8.1 -1.1 13.1 -3 7.5 -2.8 10.8 -4.7 23.6 -14 9.4 -6.8 17.1 -9.4 27.5 -9.4 11.6 0 18.4 2.7 31.8 12.7 10.9 8.1 16.7 10.7 24.1 10.7 7.6 0 11.7 -1.7 21.7 -9.2 14.9 -11.1 22.2 -14.1 34.9 -14.2 10.8 0 18.7 2.9 31.2 11.8 5.7 4 11.7 8 13.4 8.9 11.3 5.8 24.4 3.1 38.2 -7.9 13.4 -10.7 25.6 -14.7 37.5 -12.4 8.8 1.6 14.8 4.7 25.7 12.9 5.9 4.5 11.4 7.7 14.5 8.6 6.1 1.8 17.1 2.1 24.3 0.6 7.7 -1.6 11.2 0.4 11.2 6.4 0 6.5 -3.9 8.8 -17.5 10 -13.6 1.3 -25.8 -2.8 -40 -13.5 -10.6 -7.9 -16.9 -10.3 -26 -9.8 -8.5 0.5 -15.1 3.2 -24.3 10.1 -20.9 15.4 -39.4 16.6 -58.2 3.8 -20.1 -13.7 -20.9 -14.1 -30.1 -14.1 -7.9 0 -15 2.9 -25 10.1 -14.8 10.7 -22.5 13.5 -35.9 12.7 -9.7 -0.6 -17 -3.9 -28 -12.8 -4.1 -3.3 -9.9 -6.9 -12.8 -8 -10.2 -3.9 -21.4 -1.9 -32.5 5.8 -2.8 1.9 -8 5.5 -11.5 7.8 -3.4 2.4 -9.3 5.3 -13 6.4 -7.9 2.5 -18.7 3.4 -22.2 2z"/>
  <path d="M193 1353 c0 -4.4 1 -5 7.6 -5 5.7 0 6.4 0.2 6.4 2 0 1.5 -0.7 2 -2.9 2 -1.6 0 -4.7 0.7 -7 1.5 -3.9 1.3 -4.1 1.3 -4.1 -0.5z"/>
  <path d="M318 1349.9 c0 -1.9 0.6 -2.8 2.3 -3.3 5.7 -1.5 9.7 -0.1 9.7 3.5 0 1.4 -1.1 1.8 -6 2.1 -5.9 0.3 -6 0.3 -6 -2.3z"/>
  <path d="M134.7 1296.3 c-3.3 -0.9 -1.5 -3.8 2.6 -4.1 3.4 -0.3 3.7 -0.1 3.7 2.2 0 2.7 -1.6 3.1 -6.3 1.9z"/>
  <path d="M146 1294.6 c0 -2.4 0.3 -2.6 4.5 -2.6 3.2 0 4.7 0.5 5.2 1.5 0.8 2.2 0 2.7 -5.2 3.2 -4.3 0.5 -4.5 0.5 -4.5 -2.1z"/>
  <path d="M254 1295.7 c-4.7 -1.6 -4.6 -4.1 0.3 -4.5 3.5 -0.3 3.7 -0.2 3.7 2.7 0 1.7 -0.1 3.1 -0.2 3 -0.2 0 -1.9 -0.5 -3.8 -1.2z"/>
  <path d="M269 1294.6 c0 -2.5 2.8 -3.6 9.6 -3.6 2.7 0 3.4 0.4 3.4 1.9 0 1.4 -1.2 2.2 -4.4 3 -6.9 1.7 -8.6 1.5 -8.6 -1.3z"/>
  <path d="M374.3 1295.9 c-4.1 -1.2 -4.7 -4.9 -0.9 -4.9 5.8 0 8.6 1.2 8.6 3.6 0 2.7 -1.9 3 -7.7 1.3z"/>
  <path d="M386 1294.6 c0 -1.9 0.6 -2.4 3.8 -3 7.1 -1.1 10.2 -0.8 10.2 1.3 0 1.4 -1.2 2.2 -4.4 3 -7.3 1.8 -9.6 1.5 -9.6 -1.3z"/>
  <path d="M499.3 1296.3 c-2.4 -0.9 -1.3 -3 1.8 -3.7 8 -1.6 13.3 0.2 9.4 3.1 -1.8 1.3 -8.7 1.7 -11.2 0.6z"/>
  <path d="M95.2 1274 c-1.2 -0.5 -5.3 -1.2 -9 -1.6 -6.9 -0.7 -9.2 -1.7 -9.2 -4 0 -1 1.3 -1.4 4 -1.4 2.2 0 4 0.4 4 1 0 0.5 2.1 0.7 5 0.3 3.4 -0.4 5 -0.2 5 0.6 0 0.6 0.9 1.1 2 1.1 1.5 0 2 0.7 2 2.5 0 2.7 -0.3 2.8 -3.8 1.5z"/>
  <path d="M337.3 1273.2 c-5.6 -2.1 -6 -5.2 -0.8 -5.2 1.9 0 3.5 0.5 3.5 1 0 0.6 0.7 1 1.5 1 0.9 0 1.5 0.9 1.5 2.5 0 2.8 0 2.8 -5.7 0.7z"/>
  <path d="M192 1270.3 l0 -3.4 4.7 0.3 c6.8 0.4 7 2.9 0.3 4.9 l-5 1.6 0 -3.4z"/>
  <path d="M314 1270.4 c0 -3.4 0.1 -3.4 4.5 -3.4 3.6 0 4.5 0.3 4.5 1.8 0 1.1 -1.5 2.3 -4.5 3.3 l-4.5 1.7 0 -3.4z"/>
  <path d="M429 1272 c0 -4 1.1 -5 5.6 -5 3.6 0 4.4 0.3 4.4 1.8 0 1.3 -1.4 2.3 -5 3.4 -4.8 1.5 -5 1.5 -5 -0.2z"/>
  <path d="M211.7 1271.8 c-5.1 -1.4 -4.7 -4.2 0.6 -4.6 3.5 -0.3 3.7 -0.2 3.7 2.7 0 1.7 -0.1 3.1 -0.2 3 -0.2 -0.1 -2 -0.6 -4.1 -1.1z"/>
  <path d="M539 992.1 l0 -3.1 6 0 c3.3 0 6 0.4 6 1 0 1.2 -4.6 3.6 -8.7 4.5 -3.2 0.6 -3.3 0.5 -3.3 -2.4z"/>
  <path d="M640.3 993.4 c-5 -1.2 -6.3 -1.9 -6.3 -3.4 0 -1.8 0.9 -1.9 11.8 -1.9 6.4 0.1 12.5 0.3 13.5 0.6 2.1 0.5 2.3 3.9 0.3 4.6 -3.8 1.5 -13.5 1.5 -19.3 0.1z"/>
  <path d="M755.3 993.8 c-4 -1.3 -4.7 -4.8 -0.9 -4.8 5.8 0 8.6 1.2 8.6 3.6 0 2.7 -2 3 -7.7 1.2z"/>
  <path d="M770 992.6 c0 -2.3 0.4 -2.6 3.4 -2.6 1.9 0 3.6 -0.4 3.8 -0.9 0.5 -1.5 12.8 -2.6 12.8 -1.2 0 1.7 -9.8 6 -15.3 6.7 -4.6 0.7 -4.7 0.6 -4.7 -2z"/>
  <path d="M872.8 993.7 c-4.2 -1.6 -3.7 -4.7 0.6 -4.7 5 0 6.6 0.9 6.6 3.6 0 2.7 -2.3 3 -7.2 1.1z"/>
  <path d="M888 992.5 c0 -2.3 0.4 -2.5 4.5 -2.5 3.7 0 4.5 0.3 4.5 1.9 0 1.9 -2.5 3.1 -6.7 3.1 -1.8 0 -2.3 -0.6 -2.3 -2.5z"/>
  <path d="M528 983 c0 -1.2 3.3 -3 5.4 -3 0.9 0 1.6 0.9 1.6 2 0 1.6 -0.7 2 -3.5 2 -1.9 0 -3.5 -0.4 -3.5 -1z"/>
  <path d="M694 970.5 c0 -1.6 0.6 -2.5 1.5 -2.5 0.8 0 1.5 -0.6 1.5 -1.4 0 -2.2 13.3 -3.5 20.9 -2 2.6 0.5 3.1 1.1 3.1 3.5 0 2.6 -0.2 2.8 -2.6 1.9 -4.4 -1.7 -14.5 -1.1 -19.3 1 -5.4 2.5 -5.1 2.5 -5.1 -0.5z"/>
  <path d="M601.3 970.2 c-5.6 -2.1 -6 -5.2 -0.8 -5.2 1.9 0 3.5 0.5 3.5 1 0 0.6 0.7 1 1.5 1 0.9 0 1.5 0.9 1.5 2.5 0 2.8 0 2.8 -5.7 0.7z"/>
  <path d="M932 968 c0 -2.9 0.2 -3 4.5 -3 3.7 0 4.5 0.3 4.5 1.8 0 1.3 -1.2 2.2 -3.9 3 -5.2 1.6 -5.1 1.6 -5.1 -1.8z"/>
  <path d="M583 966.9 c0 -2.8 0.2 -2.9 4.5 -2.9 3.2 0 4.7 0.5 5.2 1.5 0.7 2.1 0.4 2.4 -5 3.4 l-4.7 0.8 0 -2.8z"/>
  <path d="M897 914.5 c0 -3.5 0 -3.5 4.5 -3.5 3.3 0 4.5 0.4 4.5 1.5 0 1.5 -1.8 2.7 -6.4 4.5 -2.5 0.9 -2.6 0.8 -2.6 -2.5z"/>
  <path d="M662 914.5 c0 -1.4 0.5 -2.5 1 -2.5 0.6 0 1 -0.7 1 -1.5 0 -1.2 1.3 -1.5 5.5 -1.5 3 0 5.5 0.4 5.5 0.8 0 0.9 -6 4.5 -10.3 6.1 -2.5 1 -2.7 0.9 -2.7 -1.4z"/>
  <path d="M545 912.4 c0 -3.4 0 -3.4 4.5 -3.4 6.8 0 6 3.3 -1.2 5.8 -3.3 1.1 -3.3 1.1 -3.3 -2.4z"/>
  <path d="M763 906 c0 -1.6 0.7 -2 3.5 -2 2.8 0 3.5 0.4 3.5 2 0 1.6 -0.7 2 -3.5 2 -2.8 0 -3.5 -0.4 -3.5 -2z"/>
  <path d="M924 898 c0 -2 0.5 -3 1.5 -3 0.8 0 1.5 -0.9 1.5 -2 0 -1.6 0.7 -2 3 -2 1.7 0 3 -0.4 3 -1 0 -0.5 2 -1 4.5 -1 3.8 0 4.5 0.3 4.5 1.9 0 1.5 -1.3 2.3 -5.2 3.5 -2.9 0.8 -7 2.7 -9 4.1 l-3.8 2.6 0 -3.1z"/>
  <path d="M698 892.4 c0 -3.4 0.1 -3.4 4.5 -3.4 3.7 0 4.5 0.3 4.5 1.9 0 1.3 -1.3 2.3 -4.5 3.3 l-4.5 1.5 0 -3.3z"/>
  <path d="M578 892 c0 -2.9 0.2 -3 4.5 -3 3.8 0 4.5 0.3 4.5 2 0 1.4 -1.1 2.2 -3.7 2.9 -5.2 1.5 -5.3 1.5 -5.3 -1.9z"/>
  <path d="M714.7 893.8 c-5.1 -1.4 -4.7 -4.2 0.6 -4.6 3.5 -0.3 3.7 -0.2 3.7 2.7 0 1.7 -0.1 3.1 -0.2 3 -0.2 -0.1 -2 -0.6 -4.1 -1.1z"/>
  <path d="M210.2 456 c-3.9 -0.9 -5.7 -2.4 -4.8 -3.9 0.9 -1.4 7.6 -1.5 7.6 -0.1 0 0.6 0.9 1 2 1 1.3 0 2 0.7 2 2 0 2.2 -1.2 2.3 -6.8 1z"/>
  <path d="M252 438 c0 -2 0.5 -3 1.5 -3 0.8 0 1.5 -0.9 1.5 -2 0 -1.7 0.7 -2 4.5 -2 3.8 0 4.5 0.3 4.5 2 0 1.1 -0.6 2 -1.3 2 -0.7 0 -3.4 1.3 -6 3 l-4.7 3 0 -3z"/>
  <path d="M174 435.4 c-4.2 -1.5 -14.8 -1.8 -18.4 -0.4 -2.5 0.9 -2.6 0.8 -2.6 -2.6 l0 -3.5 10.7 0.3 c7.3 0.2 10.8 0.7 11.1 1.6 0.2 0.6 1.2 1.2 2.3 1.2 1.4 0 1.9 0.7 1.9 2.5 0 2.8 -0.1 2.8 -5 0.9z"/>
  <path d="M275.8 433.8 c-6.1 -1.6 -4.5 -4.8 2.3 -4.8 2.6 0 2.9 0.4 2.9 3 0 1.7 -0.3 3 -0.7 2.9 -0.5 -0.1 -2.5 -0.6 -4.5 -1.1z"/>
  <path d="M382.3 433.8 c-4.7 -1.6 -4.6 -4.8 0.2 -4.8 3.2 0 3.5 0.2 3.5 3 0 1.7 -0.1 3 -0.2 2.9 -0.2 -0.1 -1.8 -0.6 -3.5 -1.1z"/>
  <path d="M101.8 384.3 c-1 -0.2 -1.8 -1.3 -1.8 -2.4 0 -1.5 0.7 -1.9 3.5 -1.9 3.1 0 3.5 0.3 3.5 2.5 0 2.5 -1.1 2.9 -5.2 1.8z"/>
  <path d="M114 382.6 c0 -2.6 2.1 -3.6 8.3 -3.6 2.9 0 3.7 0.4 3.7 1.8 0 1.3 -1.2 2.2 -3.9 3 -6.1 1.9 -8.1 1.6 -8.1 -1.2z"/>
  <path d="M207.3 383.3 c-0.7 -0.2 -1.3 -1.3 -1.3 -2.4 0 -1.5 0.7 -1.9 3.5 -1.9 3.1 0 3.5 0.3 3.5 2.5 0 1.9 -0.5 2.5 -2.2 2.4 -1.3 0 -2.9 -0.3 -3.5 -0.6z"/>
  <path d="M310.8 383.3 c-1 -0.2 -1.8 -1.3 -1.8 -2.4 0 -1.5 0.7 -1.9 3.5 -1.9 3.1 0 3.5 0.3 3.5 2.5 0 2.5 -1.1 2.9 -5.2 1.8z"/>
  <path d="M415.8 383.3 c-1 -0.2 -1.8 -1.3 -1.8 -2.4 0 -1.5 0.7 -1.9 3.5 -1.9 3.1 0 3.5 0.3 3.5 2.5 0 2.5 -1.1 2.9 -5.2 1.8z"/>
  <path d="M218 371.2 c0 -1.4 0.8 -1.9 3.1 -2 1.8 0 3.7 -0.6 4.2 -1.1 1.9 -1.9 3.7 -1.2 3.7 1.3 0 1.8 -0.7 2.5 -3.1 3 -5.6 1.1 -7.9 0.7 -7.9 -1.2z"/>
  <path d="M326 370.6 c0 -0.8 1.4 -1.9 3.1 -2.5 4.1 -1.4 3.9 -1.5 3.9 1.4 0 2.2 -0.4 2.5 -3.5 2.5 -2.3 0 -3.5 -0.5 -3.5 -1.4z"/>
  <path d="M150 362.5 c0 -1.8 0.5 -2.5 2 -2.5 1.1 0 2 -0.7 2 -1.5 0 -1.1 1.2 -1.5 5 -1.5 4.7 0 5 0.2 5 2.5 0 2.1 -0.5 2.5 -3 2.5 -1.7 0 -4.7 0.7 -6.7 1.5 -4.5 1.9 -4.3 1.9 -4.3 -1z"/>
  <path d="M134 357.4 c4.8 -4.8 8.6 -7.3 13.5 -8.4 1.7 -0.4 3.8 -1.1 4.8 -1.5 1.4 -0.6 1.7 -0.2 1.7 1.9 0 2.2 -0.4 2.6 -3 2.6 -1.6 0 -3 0.5 -3 1 0 0.6 -0.6 1 -1.4 1 -0.7 0 -3.4 1.8 -5.9 4 -3.3 2.9 -5.4 4 -7.8 4 l-3.3 0 4.4 -4.6z"/>
  <path d="M266 360.1 c0 -2.1 1.9 -3.1 6.1 -3.1 2.4 0 2.9 0.4 2.9 2.5 0 2.3 -0.4 2.5 -4.5 2.5 -3.7 0 -4.5 -0.3 -4.5 -1.9z"/>
  <path d="M745.8 353.3 c-1 -0.2 -1.8 -1.1 -1.8 -1.8 0 -1.7 6.4 -2.7 14.5 -2.3 5.2 0.3 6 0.6 6 2.3 0 1.8 -0.7 2 -8.5 2.2 -4.7 0 -9.3 -0.1 -10.2 -0.4z"/>
  <path d="M881.5 352.5 c-2.7 -0.8 -5.3 -1.4 -5.7 -1.5 -0.5 0 -0.8 -1 -0.8 -2.1 0 -2 0.3 -2.1 4.8 -1.5 2.6 0.4 6.4 1 8.5 1.3 3.1 0.4 3.7 0.9 3.7 2.9 0 2.9 -2.6 3.1 -10.5 0.9z"/>
  <path d="M156 348.6 c0 -1.8 2.2 -2.6 7 -2.6 4.8 0 7 0.8 7 2.6 0 1.1 -1.7 1.4 -7 1.4 -5.3 0 -7 -0.3 -7 -1.4z"/>
  <path d="M785.1 231.1 c-1.2 -0.8 -0.9 -1.1 1.2 -1.6 2.3 -0.6 4.1 -2.7 2 -2.4 -2.5 0.4 -4.3 -0.3 -4.3 -1.6 0 -1.1 1.2 -1.5 4.5 -1.5 l4.5 0 0 4 c0 3.8 -0.1 4 -3.2 4 -1.8 0 -4 -0.4 -4.7 -0.9z"/>
  <path d="M857.3 231.3 c-0.8 -0.2 -1.3 -2.2 -1.3 -4.4 l0 -3.9 4.4 0 c2.4 0 4.6 -0.5 4.8 -1.1 0.2 -0.6 3.2 -1.3 6.6 -1.6 5.7 -0.5 6.2 -0.4 6.2 1.4 0 1.6 -1.4 2.4 -7.5 4.2 -4.2 1.2 -7.3 2.6 -7 3.1 0.3 0.6 1.3 1 2.1 1 0.8 0 1.2 0.5 0.9 1 -0.6 1 -7 1.3 -9.2 0.3z"/>
  <path d="M900 212.5 c0 -1.4 0.5 -2.5 1 -2.5 0.6 0 1 -0.7 1 -1.5 0 -1.1 1.2 -1.5 4.5 -1.5 7.4 0 5.5 3.4 -4 7 -2.3 0.9 -2.5 0.7 -2.5 -1.5z"/>
  <path d="M820 199.5 c0 -3.9 2.3 -4.8 4.6 -1.7 1.3 1.6 1.3 1.6 1.4 0 0 -1 0.7 -1.8 1.5 -1.8 1 0 1.5 1.1 1.5 3.5 0 3.5 0 3.5 -4.5 3.5 -4.5 0 -4.5 0 -4.5 -3.5z"/>
 </g>
 <g fill="#eeebdb">
  <path d="M148.6 1377.4 c-0.6 -1.6 -5.6 -2 -5.6 -0.4 0 1.4 -3.7 1.2 -4.4 -0.2 -0.4 -1 -0.8 -1 -1.1 -0.2 -0.7 1.3 -4.5 0.7 -4.5 -0.7 0 -0.5 -0.6 -0.6 -1.4 -0.3 -2.4 0.9 -9.6 -2.9 -19.1 -10.1 -11.8 -8.9 -16.7 -11.4 -25.1 -12.7 -8.7 -1.2 -11.5 -2.6 -12.7 -6.1 -1.2 -3.8 1.2 -7.3 6.3 -8.8 9.5 -2.9 25.7 3.1 40.2 14.9 10.5 8.5 15.5 10.7 24.3 10.6 8.9 -0.1 16.6 -3.6 27.5 -12.3 23.8 -19.2 45.4 -18.9 69 1 10.8 9 14.7 10.9 23 10.9 8.3 0 15.3 -3.2 26.9 -12.4 9.2 -7.3 13.5 -9.6 22.7 -12 8.1 -2.1 12.5 -2 21.7 0.3 9.7 2.5 13.7 4.6 24.3 12.7 12.2 9.3 16.7 11.4 24.5 11.4 8.4 0 14.6 -2.9 23.4 -10.9 8.5 -7.7 13.9 -10.9 22.4 -13.3 8.3 -2.3 13.9 -2.3 22.7 0 9.5 2.6 14.4 5.1 25.2 13.1 11 8.2 15.3 10.1 22.8 10.1 7.2 0 11.9 2 12.8 5.5 1.6 6.5 -2.6 9.5 -13.4 9.5 -3.8 0 -7 -0.4 -7 -0.9 0 -0.5 -0.9 -0.7 -2 -0.4 -2.9 0.8 -13.7 -4.7 -23.8 -12.1 -12.2 -8.9 -17 -11 -25.3 -11 -8.7 0 -16.6 3.8 -26.9 13 -4.1 3.6 -9.1 7.4 -11 8.4 -4.7 2.4 -11 4.1 -11 2.9 0 -1.6 -2.8 -1 -3.4 0.7 -0.6 1.5 -0.8 1.5 -2.5 0 -1.3 -1.1 -2.1 -1.4 -2.6 -0.7 -0.8 1.4 -6.5 1.4 -6.5 0.1 0 -0.6 -1.1 -0.8 -2.5 -0.4 -1.5 0.4 -2.5 0.2 -2.5 -0.5 0 -0.6 -0.6 -0.8 -1.4 -0.5 -2.2 0.9 -10.6 -3.7 -20.2 -11.1 -9.7 -7.4 -16.2 -11 -21.7 -12 -2 -0.4 -4.1 -1.3 -4.7 -2 -1.1 -1.3 -5 -0.9 -5 0.6 0 0.4 -1.9 1.3 -4.2 2 -6.1 1.6 -8.3 2.9 -18.9 11 -10.4 7.9 -14.7 10.2 -19.8 10.4 -1.9 0.1 -3.7 0.7 -3.9 1.3 -0.2 0.6 -1 0.8 -1.9 0.5 -0.8 -0.3 -1.8 -0.1 -2.2 0.5 -0.5 0.9 -1.6 0.9 -4.1 -0.1 -2.6 -0.9 -3.4 -0.9 -3.7 0.1 -0.3 0.6 -1.5 1.2 -2.8 1.2 -1.3 0 -2.6 -0.6 -2.8 -1.2 -0.4 -1 -0.6 -1 -0.6 -0.1 -0.1 1 -1.4 0.8 -5.1 -0.6 -7.1 -2.7 -12.6 -6.2 -19.9 -12.6 -6.6 -5.8 -13.5 -9.8 -18.6 -10.9 -5.7 -1.1 -15.5 -1.5 -15.5 -0.7 0 0.5 -1.9 2 -4.2 3.4 -2.4 1.4 -7.7 5.3 -11.8 8.6 -10 8.1 -20.9 13.5 -25.6 12.7 -1.9 -0.4 -3.4 -0.3 -3.4 0.2 0 1.7 -2.8 2.1 -3.4 0.6z"/>
  <path d="M138 1296.3 c0 -0.5 -1.5 -0.8 -3.3 -0.9 -4.7 -0.1 -13.1 -4.3 -22.2 -11.1 -8.7 -6.5 -16.7 -11.3 -19 -11.3 -0.8 0 -1.5 -0.3 -1.5 -0.8 0 -0.4 -2.1 -0.5 -4.6 -0.3 -3.2 0.2 -4.9 -0.1 -5.5 -1 -0.7 -1.1 -1.1 -1.1 -1.7 -0.1 -1.2 1.8 -5.4 -3 -5.4 -6.3 0 -1.4 1 -3.7 2.2 -5.1 2.1 -2.1 3.2 -2.4 10.1 -2.4 13 0 20.8 3.2 35.9 15 9.6 7.5 13.4 9 21.8 9 8.5 0 13.2 -2 22.9 -9.8 18 -14.4 30.6 -18.3 46.6 -14.8 9.7 2.2 17.3 6.1 26.7 13.7 10.8 8.8 15.4 10.9 23.8 10.9 8.6 0 14.3 -1.9 20.7 -7 22.5 -17.6 33.9 -21.6 50.9 -17.5 8.5 2 17 6.5 25.6 13.6 10.5 8.6 15.5 10.9 23.2 10.9 7.8 0 13.9 -2.7 22.3 -9.9 15.8 -13.7 27 -17.7 41.2 -15.1 10.4 2 15.9 4.5 27.3 12.7 13.3 9.7 17.5 11.6 26.9 12 6 0.3 8 0.8 9.8 2.5 5 4.6 1.5 13.7 -4.8 12.3 -1.6 -0.4 -2.9 -0.3 -2.9 0.2 0 1.4 -9.9 0.4 -17 -1.7 -6.6 -1.9 -15.9 -7.3 -23.6 -13.6 -6.3 -5.2 -14.7 -8.6 -23.3 -9.4 -4.6 -0.5 -7.8 -0.4 -8.2 0.2 -0.3 0.5 -2.7 2.3 -5.2 4.1 -2.5 1.8 -7.6 5.8 -11.4 9.1 -8.1 6.9 -16 11 -19.7 10 -1.7 -0.4 -2.6 -0.2 -2.6 0.5 0 0.7 -0.9 0.9 -2.5 0.5 -1.5 -0.4 -2.5 -0.2 -2.5 0.5 0 0.7 -2 1.1 -5 1.1 -2.7 0 -5 -0.4 -5 -0.9 0 -0.5 -0.9 -0.7 -2 -0.4 -1.3 0.3 -2 0 -2 -0.8 0 -1.1 -0.2 -1.1 -0.8 -0.1 -1.3 1.9 -11.2 -3.5 -22.2 -12.3 -5.2 -4.1 -10.7 -8.1 -12.2 -8.8 -1.6 -0.6 -2.8 -1.4 -2.8 -1.7 0 -0.3 -3.3 -0.6 -7.3 -0.8 -3.9 -0.1 -8.4 -0.5 -9.9 -0.8 -1.9 -0.4 -2.8 -0.1 -2.8 0.8 0 0.7 -2.4 2.5 -5.3 4.1 -2.8 1.5 -8.5 5.4 -12.5 8.6 -9.1 7.2 -17.2 11.4 -20.7 10.5 -1.4 -0.3 -2.5 -0.2 -2.5 0.4 0 0.6 -0.9 0.8 -2 0.5 -1.1 -0.3 -2 0 -2 0.6 0 1.7 -14.5 1.5 -16.2 -0.2 -0.7 -0.8 -1.9 -1.2 -2.5 -1 -2.3 0.8 -12.8 -4.8 -21.8 -11.6 -4.9 -3.8 -11 -7.9 -13.5 -9.1 -2.5 -1.3 -4.7 -2.5 -5 -2.9 -0.9 -1.1 -18 -0.7 -18 0.4 0 0.6 -1.5 1.9 -3.4 2.8 -1.9 0.8 -8.1 5.1 -13.8 9.5 -11.6 8.8 -20.2 12.7 -25.5 11.7 -2 -0.4 -3.3 -0.2 -3.3 0.5 0 0.6 -2.3 1 -5.5 1 -3 0 -5.5 -0.3 -5.5 -0.7z"/>
  <path d="M530.3 995 c-4.3 -1.7 -5.7 -8.1 -2.5 -11.8 1 -1.2 4.4 -2.8 8.2 -3.7 8.2 -2.1 9.8 -3 19.9 -11 17.6 -13.8 31.4 -18 46.7 -14 6.9 1.8 13.7 5.8 23.6 13.7 10.5 8.5 15.4 10.8 22.8 10.8 8.1 0 14.3 -2.7 25.6 -11.1 10.8 -7.9 16.9 -11.2 25.1 -13.3 7.7 -2 12.9 -2 20.6 0 8.4 2.1 16.1 6.3 23.2 12.4 3.3 2.9 8.3 6.8 11.1 8.7 4.7 3.1 5.8 3.4 12.6 3.5 8.6 0 12.2 -1.4 20.9 -8.4 9 -7.2 12.2 -9.4 17.6 -12.2 19.1 -9.6 36.9 -6.7 56.8 9.3 11.9 9.6 15.1 11.2 22.9 11.2 8.2 0 14.3 -2.8 27.1 -12.5 14.4 -11 24.3 -14.1 39.5 -12.5 9.7 1.1 13.3 4.4 11.1 10.2 -1.9 4.8 -3.9 5.2 -21.8 4.3 -4.1 -0.2 -6.3 0.1 -6.3 0.8 0 0.6 -1.8 1.9 -4 2.9 -2.2 1 -8 5 -12.8 8.8 -10.4 8.3 -20.2 13.4 -23.9 12.4 -1.6 -0.4 -2.9 -0.1 -3.3 0.6 -0.9 1.4 -13.3 1.4 -13.8 -0.1 -0.2 -0.6 -0.8 -0.8 -1.3 -0.4 -0.5 0.3 -0.9 0 -0.9 -0.6 0 -0.6 -1 -0.8 -2.2 -0.5 -2.8 0.7 -10.2 -3.5 -17.7 -10 -12 -10.3 -18.5 -13.5 -27.2 -13.5 -8.6 0 -15.7 3.1 -27.5 12.1 -10.8 8.2 -14.4 10.3 -18.1 10.1 -1.1 -0.1 -2.4 0.5 -2.7 1.4 -0.4 1.2 -1.4 1.4 -3.6 0.9 -1.9 -0.4 -3 -0.3 -3 0.4 0 0.7 -2.5 1.1 -6.5 1.1 -3.6 0 -6.5 -0.4 -6.5 -0.9 0 -0.5 -0.9 -0.7 -2 -0.4 -1.1 0.3 -2 0 -2 -0.6 0 -0.5 -0.7 -0.8 -1.5 -0.5 -2.2 0.9 -10.3 -4 -19 -11.7 -4.4 -3.8 -10.1 -8 -12.7 -9.2 -2.7 -1.2 -4.8 -2.5 -4.8 -2.9 0 -0.3 -0.9 -0.4 -2 -0.1 -1.2 0.3 -2 0 -2 -0.7 0 -0.9 -0.4 -0.9 -1.2 -0.3 -1.6 1.2 -4.8 1.3 -4.8 0.1 0 -0.4 -0.7 -0.8 -1.5 -0.8 -0.8 0 -1.5 0.5 -1.5 1 0 0.6 -1.1 0.8 -2.5 0.4 -1.7 -0.4 -2.5 -0.2 -2.5 0.7 0 0.8 -1.8 2.2 -3.9 3.2 -2.1 1 -7.4 4.6 -11.7 7.9 -12.6 9.5 -24.6 14.9 -27.2 12.2 -1.3 -1.5 -11.2 -0.8 -12.3 0.8 -0.3 0.5 -0.9 0.2 -1.2 -0.6 -0.6 -1.4 -1 -1.4 -2.8 -0.4 -1.6 1 -2.3 1 -2.6 0.2 -0.2 -0.7 -1.2 -1 -2.1 -0.7 -2.3 0.5 -11 -4.9 -19.9 -12.3 -3.9 -3.3 -9 -6.9 -11.2 -7.9 -2.2 -1.1 -4.1 -2.3 -4.1 -2.7 0 -0.4 -0.6 -0.5 -1.4 -0.2 -0.8 0.3 -4 0.1 -7.2 -0.5 -3.2 -0.6 -6 -0.7 -6.3 -0.3 -0.3 0.5 -3.5 2.2 -7.1 3.9 -3.6 1.6 -10.5 6.2 -15.4 10.1 -9 7.2 -18.6 12.9 -18.6 11.2 0 -0.6 -0.7 -1 -1.5 -1 -0.8 0 -1.5 0.6 -1.5 1.4 0 2.2 -7.5 3.3 -11.7 1.6z"/>
  <path d="M647.8 994.3 c1.2 -0.2 3 -0.2 4 0 0.9 0.3 -0.1 0.5 -2.3 0.4 -2.2 0 -3 -0.2 -1.7 -0.4z"/>
  <path d="M638.5 917.7 c-7.7 -2 -13.4 -5.1 -23.6 -12.9 -11.9 -9 -16.6 -11.2 -24.6 -11.2 -3.5 -0.1 -6.3 -0.4 -6.3 -0.8 0 -1.4 -3 -0.9 -3 0.5 -0.1 0.6 -2.3 2.3 -5.1 3.6 -2.7 1.4 -7.6 4.6 -10.9 7.2 -7.5 6.1 -14 10.2 -14 8.9 0 -0.5 -0.7 -1 -1.5 -1 -0.8 0 -1.2 0.6 -0.9 1.4 0.3 0.9 -0.9 1.7 -3.8 2.4 -8.3 2.2 -14.1 1.8 -16.8 -1 -4.5 -4.9 -1.1 -11 7 -12.3 6.9 -1.1 12.2 -3.8 21.2 -10.8 9.2 -7.2 14.4 -9.9 23.3 -12.2 15.7 -4 29.5 0.4 46.6 15 3 2.5 7.8 5.8 10.7 7.2 4.7 2.3 6.1 2.5 13.5 2.1 9.2 -0.5 11.7 -1.6 23.2 -10.2 16.3 -12.1 23 -14.9 36 -14.9 13.1 0 21.4 3.5 35 14.8 11.3 9.3 18.4 11.9 27.4 10 7.4 -1.6 11.7 -3.9 23.6 -12.9 5.5 -4.2 10.7 -7.6 11.5 -7.6 0.9 0 2 -0.4 2.6 -0.9 1.8 -1.8 11.9 -4.1 17.9 -4.1 13.2 0 22.6 4.2 36.3 16.1 3 2.7 7.9 6.1 10.9 7.5 4.7 2.3 6.2 2.6 12.6 2.2 8.5 -0.6 13.3 -2.8 22.8 -10.3 16.1 -13 29.3 -17.4 43.1 -14.6 9.7 2 14 9.6 7.5 13.3 -2.4 1.4 -21.7 1.9 -21.7 0.6 0 -0.5 -0.7 -0.8 -1.5 -0.8 -0.8 0 -1.5 0.7 -1.5 1.6 0 1.2 -0.7 1.4 -3 0.9 -2.2 -0.5 -3 -0.3 -3 0.7 0 1.2 -19.1 16.3 -23.6 18.6 -1.1 0.6 -3.1 0.8 -4.3 0.5 -1.6 -0.4 -2 -0.2 -1.6 0.9 1 2.4 -7.1 4.1 -17.4 3.6 -11 -0.5 -17.7 -3.6 -29.6 -13.3 -11.1 -9.1 -17.3 -12 -25.5 -12 -8.3 0.1 -14.8 3 -26.4 11.8 -4.7 3.6 -11.6 8 -15.3 9.9 -6.4 3.1 -7.3 3.3 -17.8 3.3 -10.6 0 -11.3 -0.1 -18.5 -3.6 -4.1 -2 -11.5 -6.8 -16.5 -10.8 -4.9 -3.9 -10.9 -7.9 -13.2 -8.7 -2.4 -0.9 -4.3 -2 -4.3 -2.3 0 -0.4 -2.7 -0.4 -6 -0.1 -3.3 0.3 -6 0.2 -6 -0.2 0 -0.4 -0.7 -0.8 -1.5 -0.8 -0.8 0 -1.5 0.6 -1.5 1.3 0 0.6 -2.2 2.2 -4.9 3.5 -2.7 1.2 -7.7 4.3 -11.2 6.9 -8.9 6.6 -13.8 9.1 -16 8.6 -1.3 -0.4 -1.8 -0.1 -1.4 0.8 1.5 4 -18.7 7.2 -29 4.6z"/>
  <path d="M102.5 455.7 c-6.4 -2.2 -11.6 -5.1 -19.3 -11.1 -8.6 -6.8 -14.3 -9.5 -19.9 -9.6 -3.2 0 -4.6 -0.5 -5.7 -2.2 -2.5 -3.5 -2 -8.3 1 -10.7 3 -2.4 6 -2.6 13.6 -1 6.9 1.5 10.9 3.6 18.8 9.9 10.6 8.5 13.8 10 21.1 10.1 8.2 0.1 13.1 -2.1 22.4 -10.2 12.5 -10.8 24.3 -14.6 38 -12 7.6 1.4 13.8 4.7 25 13.1 11.9 8.9 12.8 9.3 21 9.3 8.6 0 11.4 -1.3 21.5 -10.1 12.6 -11.1 25.2 -15 39.4 -12.3 7.9 1.5 13.1 4.2 22.3 11.9 9.4 7.9 14.1 10.1 21.1 10.2 6.6 0 11.6 -2.3 21.1 -9.9 22.5 -18.1 42.2 -18.4 62.3 -1 9.8 8.4 15.1 10.9 23.3 10.9 5.7 0 6.9 0.3 9.2 2.6 3.2 3.2 2.6 7.7 -1.4 11.3 -2.4 2.1 -3.4 2.3 -10.3 1.9 -9.8 -0.6 -16.1 -3.5 -26.5 -12.2 -4.4 -3.7 -10.1 -7.7 -12.7 -8.9 -2.7 -1.2 -4.8 -2.4 -4.8 -2.7 0 -1.1 -12.4 0.7 -16 2.2 -2 0.8 -7.4 4.4 -12 7.9 -15.6 11.8 -21.9 14.4 -33.4 13.7 -9.3 -0.6 -16 -3.7 -25.1 -11.4 -7.4 -6.4 -13.7 -10.4 -16.1 -10.4 -0.8 0 -1.7 -0.6 -2 -1.3 -0.4 -1.1 -1.9 -1.1 -7.2 -0.4 -3.7 0.6 -8.1 1 -9.9 0.9 -1.9 0 -3.3 0.5 -3.5 1.3 -0.4 1.9 -17 15 -22.1 17.4 -6.1 2.9 -15.4 4.5 -21 3.7 -2.6 -0.4 -4.7 -1.1 -4.7 -1.6 0 -0.5 -0.7 -0.7 -1.5 -0.4 -2.2 0.9 -11.2 -3.7 -20 -10.2 -10.4 -7.7 -13.1 -9.4 -15 -9.4 -0.8 0 -1.5 -0.4 -1.5 -1 0 -0.5 -0.7 -0.7 -1.5 -0.4 -0.8 0.4 -1.5 0.1 -1.5 -0.6 0 -0.6 -0.5 -0.8 -1.1 -0.4 -1.9 1.1 -7.9 1.4 -7.9 0.4 0 -0.6 -0.9 -1 -2 -1 -1.1 0 -2 0.6 -2 1.3 0 0.6 -1.9 2.2 -4.2 3.5 -2.4 1.2 -7.4 4.9 -11.3 8.2 -10.1 8.7 -15.9 11.3 -25.9 11.7 -4.9 0.2 -9.7 -0.2 -12.1 -1z"/>
  <path d="M104 384.1 c0 -0.5 -0.8 -0.7 -1.9 -0.4 -3.2 0.8 -12 -3.7 -21 -10.9 -8.2 -6.6 -15.1 -9.8 -20.6 -9.8 -4.9 0 -7.5 -7.4 -4.5 -12.9 3.8 -7.2 18.4 -2.7 33.8 10.3 8.6 7.2 16.1 11 20.4 10.2 1.8 -0.4 4.7 -0.9 6.3 -1.3 3.6 -0.7 11.6 -6 20.5 -13.6 3.5 -3.1 6.8 -5.3 7.2 -5.1 0.4 0.3 0.8 0 0.8 -0.5 0 -0.6 1.3 -1.1 2.8 -1.1 1.5 0 3.2 -0.4 3.8 -1 1.5 -1.5 15.7 -1.8 21.3 -0.3 7 1.7 11.2 4 21.2 11.5 4.8 3.6 10.5 7.2 12.8 8.1 5 2 18.3 2.6 18.9 0.9 0.2 -0.7 1 -1.2 1.8 -1.2 1.8 0 5.9 -2.6 9.9 -6.4 5 -4.7 12.8 -9.4 19.6 -11.6 5.1 -1.7 8.1 -2.1 14.4 -1.8 10.5 0.6 17.4 3.3 27.2 10.9 11.3 8.8 14.5 10.2 23 10.5 8.5 0.3 12.9 -1.4 23.8 -9.6 3.9 -2.9 9.9 -6.7 13.5 -8.4 5.9 -2.8 7.4 -3.1 16.5 -3.1 11.5 0 14.8 1.3 29 11.4 11.1 7.9 14.6 9.4 24 9.9 6.3 0.3 8.5 0.9 10.3 2.5 3.2 2.9 2.9 7.2 -0.8 10.9 -3 2.9 -3.3 3 -11.2 2.6 -4.8 -0.2 -8.3 -0.8 -8.5 -1.5 -0.2 -0.6 -1.2 -0.9 -2.2 -0.6 -2.5 0.6 -8.9 -2.7 -20.1 -10.7 -10.7 -7.6 -14.1 -9 -21.4 -9 -6.6 0.1 -11.1 2.2 -22.2 10.4 -12 8.9 -17.3 10.9 -29.3 11 -6.5 0.1 -9.6 -0.3 -9.8 -1.1 -0.2 -0.7 -1.1 -0.9 -1.9 -0.6 -2.2 0.8 -11.1 -4 -18.9 -10.2 -7.7 -6.2 -12.3 -8.9 -17.2 -10 -1.8 -0.3 -3.3 -1.1 -3.3 -1.6 0 -0.6 -0.4 -0.7 -1 -0.4 -0.5 0.3 -3.6 1.3 -6.7 2.1 -6.8 1.8 -12 4.6 -18.9 10.4 -2.7 2.3 -7.4 5.4 -10.5 7 -9.2 4.7 -22.8 6.2 -25.1 2.6 -0.6 -0.8 -0.8 -0.8 -0.8 0.1 0 0.8 -1 0.9 -3.7 0.1 -5.9 -1.6 -12.1 -5.1 -20.6 -11.5 -8.1 -6.2 -15 -9.3 -20.4 -9.3 -1.8 0 -3.3 -0.4 -3.3 -1 0 -0.5 -0.9 -1 -2 -1 -1.1 0 -2 0.7 -2 1.5 0 0.8 -0.6 1.5 -1.4 1.5 -2.5 0 -10.3 5 -16.5 10.5 -7.7 6.8 -11.4 8.8 -17.1 9 -2.4 0.1 -4.6 0.7 -4.8 1.4 -0.4 1.3 -13.2 1.6 -13.2 0.2z"/>
  <path d="M752 353.2 c0 -0.4 -1.8 -0.6 -3.9 -0.4 -5.8 0.6 -16 -3.2 -24.7 -9 -14.7 -9.8 -22.9 -25.3 -22.9 -42.8 0.2 -26.8 18.9 -48.4 53.5 -61.5 7.3 -2.8 17.9 -6.1 27.2 -8.6 9.3 -2.5 11.1 -3.9 5.3 -3.9 -4.5 0 -22.8 -5.9 -37.2 -12 -26.2 -11.1 -40.7 -24.1 -46.9 -42.1 -9.2 -26.5 5.2 -55.9 32.4 -65.8 21.5 -7.9 42.2 -2.2 58.5 15.8 5.9 6.6 14.4 20.2 18.6 30 6.8 15.5 14.3 45.4 11.7 46.5 -0.6 0.2 -0.4 0.5 0.5 0.5 1.2 0.1 1.8 -1.2 2.3 -5.1 1 -7.6 7.1 -30.4 10.1 -37.8 11.7 -28.6 26.3 -45.1 45.4 -51 25.3 -7.8 55.5 6.9 65.2 31.8 3.4 8.6 3.8 24.4 1 33.9 -3.9 13.2 -14.1 25.1 -29.3 34.2 -4.7 2.9 -8.4 4.4 -10.5 4.4 -2 -0.1 -3 0.3 -2.7 1.1 0.7 2 -27.7 12.9 -31.3 12 -1.3 -0.4 -2.3 -0.2 -2.3 0.4 0 0.6 -0.9 0.8 -2 0.5 -1.4 -0.4 -2 0 -2 1.2 0 1.5 -0.6 1.7 -4.5 1.2 -2.5 -0.4 -4.5 -0.3 -4.5 0.2 0 1.1 5.2 2.8 19.5 6.6 20.8 5.5 36.2 12.5 49.2 22.1 23 17.1 28 49.7 11.6 74.6 -7.2 11 -20.2 19.3 -35.3 22.7 -6.4 1.5 -14.7 1.4 -15.4 -0.1 -0.4 -0.9 -0.8 -1 -1.1 -0.2 -0.6 1.2 -5.5 0.6 -5.5 -0.7 0 -0.5 -0.7 -0.6 -1.5 -0.3 -0.8 0.4 -1.5 0.1 -1.5 -0.5 0 -0.6 -0.7 -0.8 -1.5 -0.5 -2.6 1 -11.9 -5 -19.5 -12.6 -14.5 -14.4 -23.2 -33.8 -30.4 -67.5 -1.6 -7.7 -2.5 -10.2 -2.9 -8.5 -7.9 35.9 -12.6 49.4 -22.6 64.7 -3.6 5.4 -11.4 13.8 -17.1 18.1 -6.4 4.9 -21.5 10.1 -23.4 8.2 -1.3 -1.3 -4.6 -1.3 -4.6 0 0 0.6 -1.1 1 -2.5 1 -1.4 0 -2.5 -0.3 -2.5 -0.8z"/>
 </g>
</svg>